<?xml version="1.0" encoding="UTF-8"?>
<svg xmlns="http://www.w3.org/2000/svg" width="640" height="240" viewBox="0 0 640 240" role="img" aria-label="Ahoi Ashtami stars and mother’s fast" data-subject="mother-stars">
  <defs>
    <linearGradient id="ahoi" x1="0" y1="0" x2="0" y2="1">
      <stop offset="0%" stop-color="#0F0A20"/><stop offset="100%" stop-color="#2A2048"/>
    </linearGradient></defs>
  
  <rect width="640" height="240" fill="url(#ahoi)"/>
  <g fill="#F5C842" opacity="0.85">
    <circle cx="420" cy="55" r="3"/><circle cx="440" cy="48" r="2"/><circle cx="460" cy="58" r="2.5"/>
    <circle cx="400" cy="65" r="2"/><circle cx="450" cy="70" r="2"/><circle cx="480" cy="52" r="2"/><circle cx="430" cy="72" r="1.8"/>
  </g>
  <g transform="translate(280,120)">
    <ellipse cx="0" cy="52" rx="28" ry="8" fill="#000" opacity="0.15"/>
    <ellipse cx="-8" cy="0" rx="11" ry="13" fill="#E8C8D8"/>
    <path d="M-16 4 Q-8 -4 0 4 L-4 40 Q-8 46 -12 40Z" fill="#C2457E" opacity="0.8"/>
    <ellipse cx="14" cy="18" rx="7" ry="9" fill="#F5D6A8"/>
    <path d="M8 22 Q14 14 20 22 L18 36 Q14 40 10 36Z" fill="#6B8FD4" opacity="0.7"/>
  </g>
  
  <text x="28" y="36" font-family="Georgia, 'Noto Serif Devanagari', serif" font-size="22" fill="#FAF5EA" opacity="0.92">Ahoi Ashtami</text>
  <text x="28" y="58" font-family="'Noto Sans Devanagari', sans-serif" font-size="12" fill="#C9B896" letter-spacing="0.08em" opacity="0.78">अहोई अष्टमी</text>
</svg>
