<?xml version="1.0" encoding="UTF-8"?>
<svg xmlns="http://www.w3.org/2000/svg" width="640" height="240" viewBox="0 0 640 240" role="img" aria-label="Mandala season opens at Sabarimala" data-subject="ayyappa">
  <defs>
    <linearGradient id="sabar" x1="0" y1="0" x2="0" y2="1">
      <stop offset="0%" stop-color="#0A1820"/><stop offset="100%" stop-color="#2A4838"/>
    </linearGradient></defs>
  
  <rect width="640" height="240" fill="url(#sabar)"/>
  <path d="M0 150 Q200 100 400 140 T640 120 L640 240 L0 240Z" fill="#1A3020" opacity="0.6"/>
  <g transform="translate(340,115)">
    <ellipse cx="0" cy="58" rx="28" ry="9" fill="#000" opacity="0.2"/>
    <ellipse cx="0" cy="-2" rx="14" ry="16" fill="#1A2848"/>
    <path d="M-16 4 Q0 -6 16 4 L12 50 Q0 58 -12 50Z" fill="#2A5898"/>
    <circle cx="0" cy="-20" r="10" fill="none" stroke="#D4AF37" stroke-width="2"/>
    <path d="M-24 10 Q0 0 24 10" fill="none" stroke="#F5C842" stroke-width="3"/>
  </g>
  <g transform="translate(200,175)">
    <path d="M0 30h20c-2-6-1-14 4-18 3-3 7-4 9-4s6 1 9 4c5 4 6 12 4 18H0z" fill="#6B3410"/>
    <ellipse cx="10" cy="6" rx="6" ry="8" fill="#FFD86B" opacity="0.9"/>
  </g>
  <ellipse cx="480" cy="80" rx="8" ry="12" fill="#D4AF37" opacity="0.6"/>
  
  <text x="28" y="36" font-family="Georgia, 'Noto Serif Devanagari', serif" font-size="22" fill="#FAF5EA" opacity="0.92">Ayyappa Mandala Vratham begins</text>
  <text x="28" y="58" font-family="'Noto Sans Devanagari', sans-serif" font-size="12" fill="#C9B896" letter-spacing="0.08em" opacity="0.78">अय्यप्पा मंडल व्रतम आरंभ</text>
</svg>
